<?xml version="1.0" encoding="UTF-8" standalone="no"?>
<svg
   width="99.054733"
   height="46.069736"
   viewBox="0 0 99.05473 46.069736"
   version="1.1"
   id="svg180"
   xmlns="http://www.w3.org/2000/svg"
   xmlns:svg="http://www.w3.org/2000/svg">
  <defs
     id="defs184" />
  <desc
     id="desc132">Produce by Acme CAD Converter</desc>
  <g
     id="g1015"
     transform="matrix(0.64030212,0,0,0.64030212,-0.06402713,-0.06403169)"
     style="fill:#000000">
    <path
       d="m 41.469995,72.050002 h -10.79 V 0.10000244 h 10.79 z"
       fill="#ff0000"
       stroke="#ff0000"
       stroke-width="0.2"
       id="path134"
       style="fill:#000000;stroke:none;stroke-opacity:1" />
    <path
       d="m 72.049995,30.680002 v 10.79 H 0.09999512 v -10.79 z"
       fill="#ff0000"
       stroke="#ff0000"
       stroke-width="0.2"
       id="path136"
       style="fill:#000000;stroke:none;stroke-opacity:1" />
    <path
       d="M 124.22,72.050002 H 113.43 V 0.10000244 h 10.79 z"
       fill="#ff0000"
       stroke="#ff0000"
       stroke-width="0.2"
       id="path138"
       style="fill:#000000;stroke:none;stroke-opacity:1" />
    <path
       d="m 82.849995,41.470002 v -10.79 H 154.8 v 10.79 z"
       fill="#ff0000"
       stroke="#ff0000"
       stroke-width="0.2"
       id="path140"
       style="fill:#000000;stroke:none;stroke-opacity:1" />
    <path
       d="m 150.4,65.110002 -8.27,6.94 -42.630005,-50.81 8.260005,-6.94 z"
       fill="#ff0000"
       stroke="#ff0000"
       stroke-width="0.2"
       id="path142"
       style="fill:#000000;stroke:none;stroke-opacity:1" />
    <path
       d="m 107.76,14.300002 -2.76,-2.97 -7.520005,7.75 2.02,2.16 z"
       fill-rule="nonzero"
       fill="#ff0000"
       id="path144"
       style="fill:#000000;stroke:none;stroke-opacity:1" />
    <path
       d="m 105,11.330002 -3.06,-2.6799996 -6.680005,8.4799996 2.22,1.95 z"
       fill-rule="nonzero"
       fill="#ff0000"
       id="path146"
       style="fill:#000000;stroke:none;stroke-opacity:1" />
    <path
       d="m 101.94,8.6500024 -3.310005,-2.34 -5.78,9.1099996 2.41,1.71 z"
       fill-rule="nonzero"
       fill="#ff0000"
       id="path148"
       style="fill:#000000;stroke:none;stroke-opacity:1" />
    <path
       d="m 98.629995,6.3100024 -3.54,-2 -4.81,9.6599996 2.57,1.45 z"
       fill-rule="nonzero"
       fill="#ff0000"
       id="path150"
       style="fill:#000000;stroke:none;stroke-opacity:1" />
    <path
       d="m 95.089995,4.3100024 -3.72,-1.62 -3.8,10.0999996 2.71,1.18 z"
       fill-rule="nonzero"
       fill="#ff0000"
       id="path152"
       style="fill:#000000;stroke:none;stroke-opacity:1" />
    <path
       d="m 91.369995,2.6900024 -3.87,-1.23 -2.74,10.4399996 2.81,0.89 z"
       fill-rule="nonzero"
       fill="#ff0000"
       id="path154"
       style="fill:#000000;stroke:none;stroke-opacity:1" />
    <path
       d="m 87.499995,1.4600024 -3.98,-0.82999996 -1.66,10.66999956 2.9,0.6 z"
       fill-rule="nonzero"
       fill="#ff0000"
       id="path156"
       style="fill:#000000;stroke:none;stroke-opacity:1" />
    <path
       d="m 83.519995,0.63000244 -4.04,-0.41 -0.55,10.76999956 2.93,0.31 z"
       fill-rule="nonzero"
       fill="#ff0000"
       id="path158"
       style="fill:#000000;stroke:none;stroke-opacity:1" />
    <path
       d="m 79.479995,0.22000244 h -4.06 l 0.55,10.76999956 h 2.96 z"
       fill-rule="nonzero"
       fill="#ff0000"
       id="path160"
       style="fill:#000000;stroke:none;stroke-opacity:1" />
    <path
       d="m 75.419995,0.22000244 -4.04,0.41 1.66,10.66999956 2.93,-0.31 z"
       fill-rule="nonzero"
       fill="#ff0000"
       id="path162"
       style="fill:#000000;stroke:none;stroke-opacity:1" />
    <path
       d="m 71.379995,0.63000244 -3.98,0.82999996 2.74,10.4399996 2.9,-0.6 z"
       fill-rule="nonzero"
       fill="#ff0000"
       id="path164"
       style="fill:#000000;stroke:none;stroke-opacity:1" />
    <path
       d="m 67.399995,1.4600024 -3.87,1.23 3.8,10.0999996 2.81,-0.89 z"
       fill-rule="nonzero"
       fill="#ff0000"
       id="path166"
       style="fill:#000000;stroke:none;stroke-opacity:1" />
    <path
       d="m 63.529995,2.6900024 -3.72,1.62 4.81,9.6599996 2.71,-1.18 z"
       fill-rule="nonzero"
       fill="#ff0000"
       id="path168"
       style="fill:#000000;stroke:none;stroke-opacity:1" />
    <path
       d="m 59.809995,4.3100024 -3.54,2 5.78,9.1099996 2.57,-1.45 z"
       fill-rule="nonzero"
       fill="#ff0000"
       id="path170"
       style="fill:#000000;stroke:none;stroke-opacity:1" />
    <path
       d="m 56.269995,6.3100024 -3.31,2.34 6.68,8.4799996 2.41,-1.71 z"
       fill-rule="nonzero"
       fill="#ff0000"
       id="path172"
       style="fill:#000000;stroke:none;stroke-opacity:1" />
    <path
       d="m 52.959995,8.6500024 -3.06,2.6799996 7.51,7.75 2.23,-1.95 z"
       fill-rule="nonzero"
       fill="#ff0000"
       id="path174"
       style="fill:#000000;stroke:none;stroke-opacity:1" />
    <path
       d="m 49.899995,11.330002 -2.76,2.97 8.26,6.94 2.01,-2.16 z"
       fill-rule="nonzero"
       fill="#ff0000"
       id="path176"
       style="fill:#000000;stroke:none;stroke-opacity:1" />
    <path
       d="m 47.139995,14.300002 8.26,6.94 -42.63,50.81 -8.2699999,-6.94 z"
       fill="#ff0000"
       stroke="#ff0000"
       stroke-width="0.2"
       id="path178"
       style="fill:#000000;stroke:none;stroke-opacity:1" />
  </g>
</svg>
