<?xml version="1.0" encoding="UTF-8" standalone="no"?>
<svg
   width="70"
   height="32.623383"
   viewBox="0 0 70 32.623383"
   version="1.1"
   id="svg180"
   sodipodi:docname="SpecsLogo.svg"
   inkscape:export-filename="NEWSpecsLogo.svg"
   inkscape:export-xdpi="99.160004"
   inkscape:export-ydpi="99.160004"
   xmlns:inkscape="http://www.inkscape.org/namespaces/inkscape"
   xmlns:sodipodi="http://sodipodi.sourceforge.net/DTD/sodipodi-0.dtd"
   xmlns="http://www.w3.org/2000/svg"
   xmlns:svg="http://www.w3.org/2000/svg">
  <defs
     id="defs184" />
  <sodipodi:namedview
     id="namedview182"
     pagecolor="#ffffff"
     bordercolor="#000000"
     borderopacity="0.25"
     inkscape:showpageshadow="2"
     inkscape:pageopacity="0.0"
     inkscape:pagecheckerboard="0"
     inkscape:deskcolor="#d1d1d1"
     showgrid="false" />
  <desc
     id="desc132">Produce by Acme CAD Converter</desc>
  <path
     d="M 18.740477,32.559715 H 13.864428 V 0.04519043 h 4.876049 z"
     fill="red"
     stroke="#ff0000"
     stroke-width="0.0903809"
     id="path134"
     inkscape:export-filename="path134.svg"
     inkscape:export-xdpi="86.76564"
     inkscape:export-ydpi="86.76564"
     style="fill:#000000" />
  <path
     d="m 32.559715,13.864428 v 4.876049 H 0.04519043 v -4.876049 z"
     fill="red"
     stroke="#ff0000"
     stroke-width="0.0903809"
     id="path136"
     style="fill:#000000" />
  <path
     d="M 56.135572,32.559715 H 51.259523 V 0.04519043 h 4.876049 z"
     fill="red"
     stroke="#ff0000"
     stroke-width="0.0903809"
     id="path138"
     style="fill:#000000" />
  <path
     d="M 37.440283,18.740477 V 13.864428 H 69.95481 v 4.876049 z"
     fill="red"
     stroke="#ff0000"
     stroke-width="0.0903809"
     id="path140"
     style="fill:#000000" />
  <path
     d="M 67.96643,29.423498 64.22918,32.559715 44.964492,9.5984502 48.697225,6.4622336 Z"
     fill="red"
     stroke="#ff0000"
     stroke-width="0.0903809"
     id="path142"
     style="fill:#000000" />
  <path
     d="M 48.697225,6.4622336 47.449968,5.1200774 44.051645,8.6223369 44.964492,9.5984502 Z"
     fill-rule="nonzero"
     fill="red"
     id="path144"
     style="fill:#000000;stroke-width:0.451904" />
  <path
     d="m 47.449968,5.1200774 -1.382827,-1.211104 -3.018724,3.8321498 1.003228,0.8812137 z"
     fill-rule="nonzero"
     fill="red"
     id="path146"
     style="fill:#000000;stroke-width:0.451904" />
  <path
     d="M 46.067141,3.9089734 44.571335,2.851517 41.959328,6.9683666 43.048417,7.7411232 Z"
     fill-rule="nonzero"
     fill="red"
     id="path148"
     style="fill:#000000;stroke-width:0.451904" />
  <path
     d="M 44.571335,2.851517 42.971594,1.9477081 40.797933,6.3131052 41.959328,6.9683666 Z"
     fill-rule="nonzero"
     fill="red"
     id="path150"
     style="fill:#000000;stroke-width:0.451904" />
  <path
     d="M 42.971594,1.9477081 41.290509,1.215623 39.573272,5.7798579 40.797933,6.3131052 Z"
     fill-rule="nonzero"
     fill="red"
     id="path152"
     style="fill:#000000;stroke-width:0.451904" />
  <path
     d="M 41.290509,1.215623 39.541639,0.65978053 38.303421,5.377663 39.573272,5.7798579 Z"
     fill-rule="nonzero"
     fill="red"
     id="path154"
     style="fill:#000000;stroke-width:0.451904" />
  <path
     d="M 39.541639,0.65978053 37.743059,0.28469983 36.992898,5.1065203 38.303421,5.377663 Z"
     fill-rule="nonzero"
     fill="red"
     id="path156"
     style="fill:#000000;stroke-width:0.451904" />
  <path
     d="m 37.743059,0.28469983 -1.825694,-0.1852808 -0.248547,4.86701087 1.32408,0.1400904 z"
     fill-rule="nonzero"
     fill="red"
     id="path158"
     style="fill:#000000;stroke-width:0.451904" />
  <path
     d="m 35.917365,0.09941903 h -1.834732 l 0.248548,4.86701087 h 1.337637 z"
     fill-rule="nonzero"
     fill="red"
     id="path160"
     style="fill:#000000;stroke-width:0.451904" />
  <path
     d="m 34.082633,0.09941903 -1.825694,0.1852808 0.750162,4.82182047 1.32408,-0.1400904 z"
     fill-rule="nonzero"
     fill="red"
     id="path162"
     style="fill:#000000;stroke-width:0.451904" />
  <path
     d="M 32.256939,0.28469983 30.45836,0.65978053 31.696578,5.377663 33.007101,5.1065203 Z"
     fill-rule="nonzero"
     fill="red"
     id="path164"
     style="fill:#000000;stroke-width:0.451904" />
  <path
     d="M 30.45836,0.65978053 28.709489,1.215623 30.426726,5.7798579 31.696578,5.377663 Z"
     fill-rule="nonzero"
     fill="red"
     id="path166"
     style="fill:#000000;stroke-width:0.451904" />
  <path
     d="m 28.709489,1.215623 -1.681084,0.7320851 2.17366,4.3653971 1.224661,-0.5332473 z"
     fill-rule="nonzero"
     fill="red"
     id="path168"
     style="fill:#000000;stroke-width:0.451904" />
  <path
     d="M 27.028405,1.9477081 25.428663,2.851517 28.040671,6.9683666 29.202065,6.3131052 Z"
     fill-rule="nonzero"
     fill="red"
     id="path170"
     style="fill:#000000;stroke-width:0.451904" />
  <path
     d="m 25.428663,2.851517 -1.495804,1.0574564 3.018722,3.8321498 1.08909,-0.7727566 z"
     fill-rule="nonzero"
     fill="red"
     id="path172"
     style="fill:#000000;stroke-width:0.451904" />
  <path
     d="m 23.932859,3.9089734 -1.382827,1.211104 3.393802,3.5022595 1.007747,-0.8812137 z"
     fill-rule="nonzero"
     fill="red"
     id="path174"
     style="fill:#000000;stroke-width:0.451904" />
  <path
     d="m 22.550032,5.1200774 -1.247256,1.3421562 3.73273,3.1362166 0.908328,-0.9761133 z"
     fill-rule="nonzero"
     fill="red"
     id="path176"
     style="fill:#000000;stroke-width:0.451904" />
  <path
     d="M 21.302776,6.4622336 25.035506,9.5984502 5.7708197,32.559715 2.03357,29.423498 Z"
     fill="red"
     stroke="#ff0000"
     stroke-width="0.0903809"
     id="path178"
     style="fill:#000000" />
</svg>
